<?xml version="1.0" encoding="UTF-8"?>
<!DOCTYPE svg PUBLIC "-//W3C//DTD SVG 1.1//EN" "http://www.w3.org/Graphics/SVG/1.1/DTD/svg11.dtd">
<!-- Creator: CorelDRAW 2020 (64-Bit) -->
<svg xmlns="http://www.w3.org/2000/svg" xml:space="preserve" width="401.084mm" height="419.347mm" version="1.1" style="shape-rendering:geometricPrecision; text-rendering:geometricPrecision; image-rendering:optimizeQuality; fill-rule:evenodd; clip-rule:evenodd"
viewBox="0 0 39995.18 41816.35"
 xmlns:xlink="http://www.w3.org/1999/xlink"
 xmlns:xodm="http://www.corel.com/coreldraw/odm/2003">
 <defs>
  <style type="text/css">
   <![CDATA[
    .fil0 {fill:#2B933C}
    .fil5 {fill:#3DB54B}
    .fil2 {fill:#53A343}
    .fil4 {fill:#63B44B}
    .fil1 {fill:#8CC451}
    .fil3 {fill:#CAE969}
    .fil8 {fill:#DDFEE4}
    .fil6 {fill:#E7FAC8}
    .fil7 {fill:#F8FFD8}
   ]]>
  </style>
 </defs>
 <g id="Capa_x0020_1">
  <metadata id="CorelCorpID_0Corel-Layer"/>
  <g id="_1749470172880">
   <path class="fil0" d="M10814.1 13882.2c-289.83,782.76 -583.09,110.43 -1456.83,562.31 -238.83,123.52 102.27,-0.24 -203.14,105.87 -1029.96,357.94 -419.87,-175.55 -1267.36,778.2 -273.43,307.66 -378.93,263.89 -723.8,351.2 39.4,390.61 141.71,16.12 280.05,636.86 76.82,344.65 5.4,539.92 -41.16,879.9l-869.48 46.51c209.88,304.23 693.72,503.62 1092.09,179.43l321.84 -323.75c287.53,-199.13 188.5,-148.36 613.92,-110.15 171.09,494.23 131.36,420.18 -93.64,814.86 -437.13,766.94 8.66,210.82 -613.8,909.01 -240.99,270.29 -128.38,257.99 -358.69,699.71 -345.78,663.25 -57.99,721.67 -167.23,1299.01 -186.67,986.38 -165.64,-761.7 -250.46,1837.06 -19.35,593.29 70.39,460.58 -291.01,740.17 240.31,210.91 212.73,116.38 270.9,335.98 103.13,389.31 -77.77,1468.03 329.1,1799.81 95.97,-134.32 40.86,12.67 91.04,-233.47 190.16,-932.4 -144.08,39.43 312.28,-1401.72 154.95,-489.35 -59.75,431.99 46.11,-179.9 37.7,-218.01 14.1,-620.72 12.85,-856.48 41.19,-43.42 197.18,-143.78 200.15,-147.09l178.41 -300.79c160.87,-315.11 174.91,-443.12 567.38,-550.47l45.14 3356.28c28.43,1529.37 169.17,1167.22 461.24,1401.05 178.26,142.75 18.9,-111.54 202.5,236.58 140.1,265.59 -24.79,264.98 407.54,660.18 290.07,265.17 186.88,209.27 191.9,1238.27 710.67,467.36 518.53,335.7 787.65,888.74 661.95,1360.38 4.62,617.72 207.59,1402 199.82,772.18 317.29,-153.53 311.55,874.76 362.18,53.77 402.01,108.78 702.38,241.87 49.51,-555.6 -51.43,-931.82 -194.9,-1444.64 -138.86,-496.37 -260.03,-203.38 -198.15,-768.97 29.62,-270.56 146.39,-377.52 221.08,-770.3 84.51,-554.66 307.9,-858.52 512.06,-194.87 355.35,171.96 625.8,805.72 658.34,877.2 622.16,1366.85 264.68,377.07 705.2,1015.3l289.49 769.42c403.48,-41.55 584.47,-110.15 895.07,35.54l866.85 699.13c907.91,825.01 703.14,610.73 2130.22,695.94 778.02,46.45 408,237.55 1066.54,320.35 385,48.42 1017.45,-31.22 1382.74,14.28 256.93,31.99 174.31,39.28 240.53,62.36 24.51,8.54 49.03,24.49 73.63,33.9 720.46,275.31 1652.03,130.62 2427.35,109.33 -221.69,-231.3 -0.49,-252.77 -1125.24,-240.59 -424.4,4.59 -730.02,39.58 -1071.25,-119.9 -37.24,-421.06 -0.88,-247.82 78.35,-675.25 1353.88,-109.64 803.45,82.11 1752,-278.93 327.61,-124.7 559.88,-30.25 919.24,-177.89l909.41 -1053.94c286.94,-692.57 -204.78,-174.99 934.79,-745.39 116.92,-58.53 283.23,-130.29 359.57,-171.44 20.41,-11 47.93,-26.04 67.92,-37.61l656.54 -395.42c392.42,-129.12 801.38,-789.14 1000.63,-1048.43 378.68,-492.84 1100.59,-422.85 1350.35,-892.72 331.75,-624.03 -536.73,-194.35 559.95,-1150.26 2178.83,-1899.2 1185.92,-2208.35 1381.95,-3137.01 300.61,-1423.96 59.99,-2709.79 189.58,-3147.34 136.33,-460.37 341.74,-27.89 82.45,-957.31 -205.48,-736.38 -190.77,-1118.94 -531.21,-1631.13 -176.83,-16.73 -191.78,90.89 -357.82,-39.18 -80.98,-953.08 -385.76,-830.79 3.28,-1126.2l365.57 -266.41c-270.84,-678.02 -352.34,-684.25 -716.26,-717.36 -502.47,571.76 224.09,1284.49 -648.55,1253.72 -119.17,-172.78 -191.53,-356.11 -349.7,-597.7 -160.81,-245.62 -71.94,-77.37 -157.87,-253.68l-89.49 -224.72c-324.09,-688.87 -661.59,-719.82 -643.15,-1715.1 -323.25,-282.57 -360.45,158.35 -755.29,-348.88 -499.8,-642.05 -31.47,-707.91 -1070.65,-1274.9 -398.63,-217.52 -302.24,-12.69 -786.18,-392.83 -359.33,81.95 -301.1,499.92 -1192.28,12.6 -1519.83,-831.09 -615.99,-441.81 -2252.95,-852.24 -762.98,-191.28 -413.15,-345.47 -944.76,-566.2 -365.89,-151.88 -860.7,-20.29 -1350.6,77.55 -1132.39,226.19 -493.14,-118.2 -1208.22,268.54 -503.32,272.18 -956.48,231.65 -1381.8,-56.2 -276.95,-187.39 -134.9,-116.59 -462.88,-247.12 -994.58,-395.81 -301.13,-363.55 -942.63,-34.62 -1822.87,934.7 -1250.99,-357.51 -2167.32,1360.96 -1904.2,168.31 433.02,294.9 -2283.21,1061.98 -170.7,722.63 39.55,557.69 -495.33,912.8z"/>
   <path class="fil1" d="M37526.11 30202.96c32.54,-480.45 192.86,-989.51 363.71,-1400.51 51.42,-123.73 69.38,-130.04 129.77,-299.15 441.28,-1235.74 1228.23,-2365.2 1407.22,-3500.27l-183.33 -41.95c-16.97,-0.97 -62.14,-8.75 -81.86,-8.75 -17.65,0 -55.74,0.82 -73.67,2.09 -596.66,42.87 251.04,90.1 -209.78,65.86 -275.07,-347.03 -334.51,-76.18 -412.92,-553.38 -49.85,-303.53 68.66,-663.46 71.75,-1030.81l-596.36 -16.92c-94.53,414.25 100.22,539.58 81.02,1155.21 -0.83,2.15 -946.58,942.29 -917.97,1500.29 215.65,847.25 592.99,316.95 404.71,1860.72 -162.85,52.89 -500.82,150.16 -729.6,218.81 -504.5,151.39 -1113.6,-94.6 -947.77,1123.49 72.66,533.94 154.95,282.51 672.31,453.45 371.57,1550.9 243.9,155.56 97.51,1715.09 -39.68,422.61 -100.91,595.1 -295.17,827.81l-850.56 962.89c-291.77,397.64 -418.12,321.97 -652.35,739.72 -227.07,404.86 -107.72,735.34 -507.66,1101.84 -49.48,45.32 -129,106.9 -192.8,151.85 -659.39,465.01 -486.45,-333.11 -1504.33,187.8 -83.72,1101.87 742.94,569.88 259.33,1229.27l-861.43 953.54c-529.29,16.79 -776.65,-92.57 -1225.29,60.63l-34.99 200.85c-83.44,1294.31 -53.89,374 -417.14,1072.4 -312.04,7.38 -934.29,-33.71 -1194.86,6.8 -363,56.45 -395.6,-47.87 -734.09,585.92 -1094.03,8.69 -675.13,-186.67 -1533.16,228.43 -408.54,197.6 -294.33,-91.43 -731.27,-191.56 -764.42,-175.18 -300.89,267.25 -1077.02,100.49 -235.3,-50.58 -456.18,-122.93 -729.87,-116.13 -661.55,16.52 -624.37,192.8 -750.5,349.46l690.05 89.16c-178.41,478.02 -2489.52,189.94 -2989.32,-68.6 -508.61,-263.1 -814.05,-744.63 -1793.08,-946.12 -619.61,-127.53 -273.64,-2.67 -774.01,-294.94l130.56 474.28c-206.26,1.79 -714.81,34.51 -897.1,-44.16 -317.19,-136.94 -86.72,-12.63 -212.3,-212.73 -99.64,-158.78 -34.66,-226.89 -308.12,-467.91 -377.19,-332.48 -1829.31,-1481.13 -2094.9,-1510.71 -135.06,-15.04 -306.53,-3.13 -437.06,-9.41 -457.36,-22.09 -451.59,-56.84 -871.31,-297.67l-157.17 -91.43c-19.93,-11.55 -57.29,-28.77 -82.3,-48.45l118.36 -119.87c10.84,-13.97 40.73,-44.5 53.19,-62.3l182.71 -460.83c-237.67,-164.42 -540.16,-296.17 -795.94,-391.1 -1243.85,-461.55 -596.33,-909.25 -1513.12,-1099.59 -730.14,-151.61 -394.69,41.31 -801.71,-429.56 -624.89,-722.88 -728.45,91.95 -1404.07,-1051.9 -197.29,-334.02 -237.97,-480.38 -532.6,-762.34 -152.4,-145.84 -188.31,-183.29 -373.97,-269.6 -511.94,-237.95 -187.58,-145.3 -332.9,-45.32 -264.31,368.17 -64.22,322.42 238.51,677.25 288.58,338.25 267.78,435.95 262.1,996.83 -647.58,-102.03 -381.45,-520.33 -1270.55,-1902.67 -273.49,-425.16 -392.81,-360.85 -545.3,-645.14 -568.18,-1059.43 737,-1465.21 -282.75,-2500.92 -437.62,-444.48 -279.11,-182.11 -765.11,-406.96 -113.64,-810.35 -209.88,-920.28 -107.26,-1337.9 124.61,-507.2 37.81,-1202.51 50.82,-1771.89 21.57,-943.55 -421.49,-989.39 -565.56,-407.12 -66.5,268.84 102.31,532.26 -568.57,1285.83 -88.67,-479.28 -97.35,-457.36 -128.96,-979.39 -49.75,-822.73 -129.09,-264.25 -274.75,-853.65 172.87,-328.93 179.58,-148.27 332.05,-621.92 91.83,-285.26 124.24,-571.08 242.8,-841.66 236.82,-540.47 201.7,-35.93 332.26,-669.96 84.09,-408.26 -67.13,-1534.75 -56.68,-2053.13 9.81,-484.67 137.03,-425.91 259.4,-789.36 158.53,-470.97 -11.98,-500.64 71.44,-899.76 100.19,-479.38 170.85,-118.24 398.55,-664.08 230.84,-553.34 110.58,-1207.21 451.49,-1578.85 525.5,-572.85 873.56,-149.97 1332.25,-729.86 1142.77,-1444.74 701.11,-613.1 2548.47,-1068.1 218.16,-53.74 11.09,-67.86 487.89,-132.5 534.88,-355.1 324.63,-190.16 495.33,-912.8 2716.23,-767.09 379.01,-893.67 2283.21,-1061.98 916.33,-1718.47 344.45,-426.25 2167.32,-1360.96 641.5,-328.93 -51.94,-361.19 942.63,34.62 327.98,130.53 185.93,59.73 462.88,247.12 425.32,287.86 878.48,328.38 1381.8,56.2 715.08,-386.74 75.83,-42.35 1208.22,-268.54 489.89,-97.84 984.7,-229.43 1350.6,-77.55 531.61,220.73 181.78,374.92 944.76,566.2 1636.97,410.43 733.13,21.15 2252.95,852.24 891.18,487.31 832.94,69.34 1192.28,-12.6 483.94,380.13 387.55,175.3 786.18,392.83 1039.18,567 570.85,632.85 1070.65,1274.9 394.84,507.23 432.05,66.31 755.29,348.88 394.78,419.47 156.69,819.48 591.72,1424.75 805.18,1120.28 315.69,1003.69 926.69,1009.76 50.31,-669.99 -811.46,-1485.02 -884.98,-2317.5 -138.25,-1565.36 -398.55,-77.15 -1205.58,-1929.49 -240.86,-552.87 -157.09,-226.86 -570.66,-509.03 -204.01,-139.2 -315.99,-335.4 -504.84,-604.78 -522.12,31.83 -612.62,185.57 -944.27,-177.07 144.04,-286.58 279.32,-182.87 434.57,-428.66 -209.45,-555.32 -264.61,-264.95 -579.14,-624.03 -272.39,-310.94 -108.96,-408.88 -408.2,-787.19 -294.91,-372.79 -416.41,-157.6 -837.74,-292.05 -567.69,-181.14 46.9,-210.6 -978.78,-347.79 -366.84,-49.06 -638.35,-135.88 -799.05,-380.29 -166.37,-253.03 -6.22,-412 -537.22,-607.29 -1088.07,-400.23 -828.89,-402.99 -1497.4,-231.69 -423.06,108.39 -190.44,160.73 -355.99,12.25 -401.37,-521.42 369.23,20.23 133.44,-975.07 -447.85,-68.14 -2177.04,-112.43 -2562.56,119.31 -1128.57,678.42 -332.23,-190.89 -1389.36,538.92 -581.29,401.34 -1559.62,285.36 -1793.34,1132.85 674.74,103.53 1372.51,-601.59 2903.63,-649.49 697.8,-21.84 575.55,-313.43 1045.28,-214.22 708.4,149.58 -63.8,213.07 496.9,676.98 212.31,175.67 701.17,172.06 1072.61,221.24 713.26,94.44 439.44,110.66 903.02,280.26 777.9,284.54 841.27,-80.41 1792.74,673.4 295.26,233.93 659.79,318.2 763.75,405.89 947.4,799.32 -1264.51,688.23 -1575.76,641.35 -147.48,-22.21 -550.95,-229.62 -831.94,-355.92 -822.52,-369.66 -396.39,-1140.88 -1315.91,-1130 -502.41,5.92 -250.89,299.48 -1125.5,226.46 -215.47,-384.05 -256.44,-669.9 -897.25,-708.09 -2001.31,-119.29 -1460.87,177.98 -2021.94,580.38 -323.12,231.75 -769.81,100.62 -1081.76,610.34 -202.25,330.5 -36.03,223.24 -317.68,556.75 -778.42,921.67 -1150.35,-605.24 -2359.63,854.75 -227.53,274.73 -138.53,297.51 -302.08,558.42 -209.94,334.82 -232.35,182.32 -454.96,397.34 -254.53,245.87 -22.05,-33.59 -208.72,411.31 -115.28,274.76 -232.96,419.32 -551.5,534.28l-209.45 -571.34 -755.2 -8.92c-646.55,991.03 -802.99,193.77 -1325.27,983.28 -330.56,499.71 -146.93,244.84 -704.08,477.83 -650.19,271.85 -114.94,384.64 -838.26,289.35 -82.08,-1107.95 704.27,-1464.1 933.13,-1705.83 775.5,-819.12 385.57,-322.79 1017.51,-798.01 395.48,-297.42 108.75,-227.53 1056.42,-853.2 395.51,-261.16 310.46,-46.27 428.6,-617.08 -1186.07,-64.01 -775.8,831.67 -3140.14,893.78 -186.27,312.13 -308.79,645.7 -624.07,857.58l-1085.68 520.3c-78.44,990.82 68.72,630.81 -433.17,1261.02 -186.76,-168.9 -419.39,-537.93 -444.12,-821.98 483.27,-260.51 -507.02,208.15 253.83,-79.52 423.89,-160.27 416.9,-185.12 511.22,-635.52 -194.63,119.14 -73.57,47.3 -228.22,161.94l-271.42 210.88c-40.47,-1258.84 -252.22,-1720.32 292.56,-2112.76 397.82,-286.55 550.25,-261.52 936.29,-342.72 152.15,-636.04 411.15,-596.27 703.77,-1127.11 218.05,-395.6 233.79,-1045 386.8,-1413.72 307.45,-56.08 422.13,-22.85 648.16,-48.85 636.19,-73.18 185.49,-33.21 447.73,-162.79 441.5,-218.14 334.26,-38.85 917.57,-41.65 8.17,-294.84 7.08,-239.4 -91.74,-443.05 -281.44,-661.86 523.31,-1175.47 1157.21,-1172.71 239.68,46.05 365.38,81.23 550.01,-85.33l93.29 -115.7c256.62,-245.33 293.99,-183.18 439.86,-228.95 365.35,-114.68 217.84,82.99 486.8,-357.33 483.72,-791.84 1744.37,-1660.42 2554.93,-1781.68l-118.3 561.91c-4.22,17.07 -13.82,49.61 -17.01,63.86 -2.82,12.66 -7.35,48.32 -9.2,58.02l487.01 -75.4c835.73,-711.07 384.75,-6.93 1086.02,-531.12 155.04,-115.91 281.28,-260.63 387.51,-351.85 425.23,-365.14 1682.63,-1129.05 2127.74,-1093.34 714.6,170.6 62.45,23.78 426.92,208.88 184.12,93.5 58.93,67.62 337.25,142.1 1293.34,346.15 1262.72,791.63 2207.48,580.42 -38.37,-491.53 7.32,-43.2 -142.11,-324 -100.88,-189.55 -92.81,1.58 -136.27,-271.84 865.96,-204.62 4110.06,88.85 4652.9,842.71 -481,303.78 -678.96,40.14 -1223.87,-71.69l-75.71 476.25 1133.37 11.46c980.28,1014.44 722.04,149.73 738.81,1311.35 318.26,144.56 568.02,361.18 1061.35,392.78 103.22,-638.31 -71.36,-732.13 450.28,-1024.08l856.79 619.09c-17.67,39.68 -44.11,77.62 -66.92,111.82 -21.96,32.9 -39.91,68.11 -66.61,106.2 -339.04,483.23 -400.04,289.4 -470.85,705.75 1029,223.73 459.18,-137.09 1529,1032.82 1175.11,1285.01 1952.88,809.92 1315.85,97.17 -847.88,-948.67 -1238.36,-462.85 -1171.04,-1304.15 912.07,-216.07 680.84,492.96 1374.23,236.64 443.96,-164.1 299.88,-753.97 1130.67,-40.85 321.78,276.19 344.56,730.69 738.68,1070.06 531.39,457.56 663.89,57.08 776.8,933.25 1767.8,19.43 1228.02,1107.16 1498.14,1726.17 109.18,250.22 239.68,470.82 332.91,682.76 -974.04,493.2 -163.95,1071.86 366.8,1274.32 155.71,-233.63 88.79,-590.93 129.89,-698.92 196.87,-517.23 1969.95,1905.11 1477.58,3592.89 -313.83,-157.71 -176.25,-323.54 -325.5,-730.51 -90.97,-248.06 -262.31,-536.27 -337.45,-722.94 -222,-551.28 46.75,-1055.02 -730.17,-1526.88 -166.96,218.99 -74.18,6.17 -131.54,322.43 -79.01,435.46 -26.7,-120.23 77.25,439.8 4.95,26.73 37.97,553.72 59.54,671.31 99,539.89 186.72,980.33 102.43,1620.28l760.28 -294.66c124.46,346.94 250.98,396.06 680.35,433.29 -68.14,531.61 91.22,322.61 -198.06,368.21 582.45,92.86 282.36,-56.44 526.01,288.09l-282.69 94.59c-142.74,42.9 -220.45,35.27 -334.75,103.01 -392.69,232.75 -433.6,1013.78 10.29,1534.35l231.69 196.97c-30.95,76.45 -209.88,351.22 -210.45,354.65 0,0 -194.6,261.46 212.15,425.59 536.92,216.68 323.48,-41.16 681.73,-326.22 235.69,-187.55 -17.29,-83.38 336.24,-188.77 -1.58,910.92 99.79,206.96 -293.35,570.87 -185.54,171.72 50.86,-129.67 -226.31,217.44 -377.83,473.24 -176.37,1149.23 -217.74,1821.71 -1309.83,-563.76 -1377.51,-58.38 -1283.86,1170.68l304.23 94.16c-378.51,-487.49 -356.36,-812.89 53.86,-1304.54 729.68,-108.17 390.55,15.68 870.58,272.18 94.56,607.23 109.69,685.03 -185.88,1006.18l574.11 -155.14c-104.62,1355.64 266.83,1201.26 -508.12,2257.23 -72.44,1.37 -272.48,-1.73 -334.84,16.13 -502.57,144.14 -178.86,8.45 -415.29,197.21 1102.82,-36.4 873.87,18.28 1317.61,-705.69 189.92,-309.88 268.63,-314.5 278.99,-684.85 8.02,-287.25 -24.58,-747.61 -23.94,-1079.76 1.52,-803.41 -321.97,-830.23 -423.82,-1515.97 -89.46,-602.35 -19.42,-1310.56 350.92,-1513.66 87.76,233.14 98.18,987.26 248.27,1486.35 150.76,501.28 815.26,2043.23 777.14,2942.11 -52.55,1239.14 -209.97,652.8 -489.07,1596.35 1026.32,87.73 631.53,812.56 1135.28,1296.83 70.39,-1367.25 134.76,-2384.18 14.22,-3791.31 44.53,-834.56 -229.32,-1142.73 -294.91,-1998.02 -56.59,-737.71 -132.23,-382.97 -278.98,-883.46 -91.37,-311.67 -69.96,-612.77 -191.1,-982.64 -398.46,-1216.76 -428.05,-2806.85 -492.82,-4248.28 -18.74,-417.72 -237.03,-972.92 -376.61,-1335.23 -9.53,-24.75 -23.26,-51.45 -33.86,-74.76l-215.71 -414.8c-10.02,-24.63 -17.1,-55.4 -27.06,-80.31l-59.94 -156.94c-486.61,-1058.91 -788.9,-1074.28 -1326.81,-1785.26l-912.28 -1437.26c-45.42,-80.11 -107.3,-173.79 -124.04,-202.56 -399.33,-685.95 -843.14,-1262.18 -1483.4,-1835.54 -249.7,-223.64 -361.31,-374.03 -615.78,-562.04 -271.32,-200.45 -93.77,-59.65 -342.8,-202.28 -148.12,-84.81 -249.88,-151.79 -390.5,-247.88 -64.77,-44.22 -301.95,-205.56 -316.65,-213.97l-786.73 -387.55c-238.07,-75.58 -339.22,-36.48 -573.61,-86.06 -498.1,-105.38 -201.16,-184.27 -883.25,-286.06 -504.07,-75.25 -1468.7,-515.29 -1749.73,-598.86 -190.34,-56.62 -288.94,-29.87 -470.42,-77.95l-798.8 -374.55c-258.48,-126 -140.43,-87.09 -421.12,-219.81 -229.8,-108.69 -137.57,-57.57 -360.79,-176.03l-3558.89 -1913.4c-679.51,-329.77 -2518.17,-187.67 -3360.05,-168.98 -721.21,16 -452.62,66 -938.47,226.89l-1021.64 354.2c-101.37,41.43 -137.97,42.77 -243.35,78.49 -258.39,87.49 -302.89,118.74 -466.84,186.82 -155.8,64.71 -237.67,81.08 -393.6,147.08 -256.62,108.69 -190.71,128.32 -422.19,209.79l-1799.33 561.71c-550.73,210.54 -895.72,88.12 -1956.07,405.19 -772.94,231.15 -1025.81,207.45 -1695.68,660.19 -1980.68,1338.72 -1536.08,1553.12 -2421.12,2401.28l-1337.3 1016.81c-928.56,635.7 -1894.04,1207.09 -2548.46,2177.37 -976.63,1448.02 -551.1,650.44 -1291,2240.93 -109.12,234.63 -85.85,153.28 -188.89,347.58 -11.46,21.57 -25.95,48.99 -37.1,70.84l-68.17 147.2c-91.04,184.48 15.5,9.17 -106.53,213.13 -628.17,1049.93 -1166.15,2088.4 -1448.05,3255.74 -317.62,1315.15 -116.4,4288.3 -483.66,5527.84 -143.29,483.57 -293.17,1466.27 -368.17,1962.81 -122.12,808.55 64.31,2888.08 373.39,3623.09l314.22 873.34c157.9,321.7 52.76,141.38 153.29,487.98l596.17 1757.95c126.83,698.46 69.87,408.57 252.65,933.53l548.95 1911.84c439.31,899.11 323.36,1260.01 1343.52,2716.57 13.36,19.08 31.65,44.95 44.44,65.07l79.41 144.63c70.26,128.65 21.44,74.73 108.38,218.31l1004.33 1345.59c256.29,328.65 848.43,902.63 1188.33,1170.04 496.96,390.98 1239.96,867.47 1819.5,1072.58l1769.92 586.43c334.72,142.04 581.06,129.04 870.58,322.85 260.67,174.49 -176.64,98.3 415.05,141.28 1208.61,87.73 657.48,186.55 1502.06,336.62l955.61 280.5c552.23,149.28 81.16,6.81 448.03,197.97l373.06 161.64c278.16,122.23 224.78,138.06 425.34,207.38l1247.1 475.7c423.03,206.11 -9.29,94.99 433.51,201.09 1716.28,411.29 2544.27,339.41 4369.23,343.79 1388.42,3.31 970.91,-152.77 2048.48,-308.88 767.27,-111.19 650.16,-241.26 1379.34,-326.83 517.6,-60.72 210.85,-17.28 488.16,-153.16 524.59,-256.99 430.26,-86 994.22,-196.75 497.91,-97.75 215.56,-228.04 870.97,-280.84 1631.49,-131.51 1598.36,100.58 3087.68,-568.42 547.95,-246.14 1038.05,-444.57 1511.75,-843.35 1731.98,-1458.1 2649.4,-2871.4 4139.31,-4112.13 508.6,-423.54 994.03,-945.97 1337.2,-1552.84l879.69 -2130.41c131.69,-339.34 87.97,-713.71 115.4,-1137.47z"/>
   <path class="fil2" d="M4920.08 11749.81c-94.32,450.41 -87.33,475.25 -511.22,635.52 -760.86,287.68 229.44,-180.99 -253.83,79.52 24.73,284.06 257.36,653.08 444.12,821.98 501.89,-630.21 354.74,-270.21 433.17,-1261.02l1085.68 -520.3c315.29,-211.88 437.8,-545.46 624.07,-857.58 2364.34,-62.11 1954.07,-957.79 3140.14,-893.78 -118.14,570.81 -33.09,355.92 -428.6,617.08 -947.67,625.67 -660.94,555.78 -1056.42,853.2 -631.94,475.22 -242.02,-21.11 -1017.51,798.01 -228.86,241.74 -1015.21,597.88 -933.13,1705.83 723.31,95.29 188.07,-17.5 838.26,-289.35 557.14,-232.99 373.51,21.88 704.08,-477.83 522.28,-789.51 678.72,7.75 1325.27,-983.28l755.2 8.92 209.45 571.34c318.54,-114.95 436.22,-259.52 551.5,-534.28 186.67,-444.9 -45.81,-165.43 208.72,-411.31 222.61,-215.01 245.03,-62.51 454.96,-397.34 163.55,-260.91 74.55,-283.69 302.08,-558.42 1209.28,-1459.99 1581.21,66.92 2359.63,-854.75 281.65,-333.52 115.43,-226.25 317.68,-556.75 311.95,-509.73 758.64,-378.59 1081.76,-610.34 561.07,-402.4 20.63,-699.67 2021.94,-580.38 640.81,38.18 681.78,324.03 897.25,708.09 874.61,73.02 623.1,-220.54 1125.5,-226.46 919.52,-10.88 493.38,760.34 1315.91,1130 280.98,126.3 684.45,333.72 831.94,355.92 311.25,46.88 2523.16,157.96 1575.76,-641.35 -103.96,-87.69 -468.48,-171.96 -763.75,-405.89 -951.47,-753.82 -1014.84,-388.86 -1792.74,-673.4 -463.59,-169.6 -189.76,-185.81 -903.02,-280.26 -371.45,-49.18 -860.31,-45.57 -1072.61,-221.24 -560.7,-463.92 211.49,-527.41 -496.9,-676.98 -469.73,-99.21 -347.49,192.39 -1045.28,214.22 -1531.13,47.9 -2228.89,753.02 -2903.63,649.49 233.73,-847.49 1212.05,-731.51 1793.34,-1132.85 1057.13,-729.81 260.79,139.5 1389.36,-538.92 385.52,-231.74 2114.7,-187.45 2562.56,-119.31 235.79,995.3 -534.82,453.65 -133.44,975.07 165.55,148.48 -67.07,96.15 355.99,-12.25 668.51,-171.3 409.33,-168.53 1497.4,231.69 531,195.29 370.85,354.26 537.22,607.29 160.7,244.42 432.21,331.23 799.05,380.29 1025.68,137.18 411.09,166.65 978.78,347.79 421.33,134.45 542.83,-80.74 837.74,292.05 299.24,378.31 135.82,476.25 408.2,787.19 314.53,359.08 369.69,68.72 579.14,624.03 -155.25,245.78 -290.53,142.08 -434.57,428.66 331.65,362.64 422.15,208.9 944.27,177.07 188.86,269.38 300.83,465.58 504.84,604.78 413.58,282.17 329.81,-43.84 570.66,509.03 807.03,1852.34 1067.33,364.13 1205.58,1929.49 73.51,832.48 935.28,1647.51 884.98,2317.5 -611,-6.07 -121.51,110.52 -926.69,-1009.76 -435.03,-605.27 -196.93,-1005.27 -591.72,-1424.75 -18.44,995.27 319.06,1026.23 643.15,1715.1l89.49 224.72c85.94,176.31 -2.94,8.06 157.87,253.68 158.17,241.59 230.53,424.92 349.7,597.7 872.64,30.77 146.09,-681.96 648.55,-1253.72 363.92,33.11 445.42,39.34 716.26,717.36l-365.57 266.41c-389.04,295.41 -84.26,173.12 -3.28,1126.2 166.04,130.07 180.99,22.45 357.82,39.18 -117.35,-330.05 -264.13,-487.06 -247.06,-871.45 832.54,0.27 951.57,875.13 963.71,902.69l257.57 1541.58c-1.67,381.45 -74.15,580.45 -89.83,867.12 -8.36,152.62 25.58,465.74 94.11,741.08 42.77,171.93 39.24,150.64 86.99,261.88 457.63,1066.02 45.42,806.52 1.85,1561.97 -35.08,608.15 164.61,-25.4 163.74,1166.57 -0.19,226.19 41.19,751.5 1.94,925.99 -79.8,354.93 -115.43,1.03 -267.11,581.87 -46.5,178.13 -24.66,266.04 -80.25,451.89l-56.13 137.42c-239.62,582.85 -701.47,1395.98 -1210.19,1690.88 -926.63,537.13 -295.84,395.82 -747.28,1142.34 -339.98,562.22 -683.87,347.54 -1064.63,762.43 -1091.87,1189.78 -1852.76,964.63 -2184.94,1492.71 -221.72,352.49 4.38,303.01 -303.22,628.29l-498.61 489.43c-579.54,784.15 -3288.42,1131.79 -4352.8,954.14 -36.22,-610.48 904.38,-418.26 1525.2,-576.5 308.54,-78.64 563.98,-159.66 886.34,-235.54 380.9,-89.67 407.18,-61.27 663.95,-360.27 118.05,-137.42 -23.29,27.98 145.3,-180.71 14.49,-17.9 33.99,-42.9 48.45,-60.76 443.36,-548.28 433.02,-738.71 590.77,-898.1 18.14,-18.32 41.8,-38.92 61.88,-55.25 20.13,-16.37 46.78,-32.69 68.53,-47.09l1435.78 -706.3 72.24 -344.09 -656.54 395.42c-19.98,11.58 -47.51,26.61 -67.92,37.61 -76.34,41.15 -242.65,112.91 -359.57,171.44 -1139.57,570.4 -647.86,52.82 -934.79,745.39l-909.41 1053.94c-359.36,147.63 -591.63,53.19 -919.24,177.89 -948.56,361.04 -398.12,169.29 -1752,278.93 -79.23,427.43 -115.59,254.19 -78.35,675.25 341.22,159.48 646.85,124.49 1071.25,119.9 1124.75,-12.19 903.54,9.29 1125.24,240.59 -775.32,21.29 -1706.89,165.98 -2427.35,-109.33 -24.6,-9.41 -49.12,-25.37 -73.63,-33.9 -66.22,-23.08 16.4,-30.37 -240.53,-62.36 -365.29,-45.5 -997.74,34.14 -1382.74,-14.28 -658.55,-82.81 -288.52,-273.9 -1066.54,-320.35 -1427.08,-85.21 -1222.31,129.07 -2130.22,-695.94l-866.85 -699.13c-310.6,-145.69 -491.59,-77.09 -895.07,-35.54l-289.49 -769.42c-440.52,-638.22 -83.04,351.55 -705.2,-1015.3 -32.54,-71.48 -302.98,-705.23 -658.34,-877.2 176.92,545.03 572.4,1482.92 891.27,1841.49 539.74,606.97 180.05,388.83 495.39,924.95 314.93,535.43 416.87,194.23 1048.99,196.6 302.82,349.46 1019.28,596.21 1421.62,1372.35 713.41,-63.76 523.22,-126.76 1126.44,218.5l694.06 367.99c595.19,316.53 415.02,311.52 1044.79,314.32l0.19 214.85c-655.51,367.14 -2351.86,123.48 -3262.7,-284.66l-154.55 -76.39c-293.51,-130.08 224.69,-107.57 -445.03,-133.11 -352.89,-13.46 -249.09,77.43 -492.02,53.74 -492.84,-48.03 -795.27,-338.19 -991.26,-729.66 -840.78,-1679.67 -663.56,-580.87 -1230.09,-1150.04 -256,-239.19 -118.02,-377.47 -204.26,-765.32 -93.05,-418.48 -130.19,-210.57 -243.1,-592.84 -221.42,-749.71 125.34,-1186.13 -211.79,-1577.87 -74.7,392.78 -191.47,499.74 -221.08,770.3 -61.88,565.59 59.29,272.61 198.15,768.97 143.46,512.82 244.41,889.04 194.9,1444.64 -300.37,-133.08 -340.2,-188.1 -702.38,-241.87 5.74,-1028.29 -111.72,-102.58 -311.55,-874.76 -202.98,-784.28 454.35,-41.62 -207.59,-1402 -269.12,-553.04 -76.98,-421.39 -787.65,-888.74 -5.02,-1029 98.17,-973.1 -191.9,-1238.27 -432.33,-395.2 -267.43,-394.59 -407.54,-660.18 -183.6,-348.12 -24.24,-93.83 -202.5,-236.58 -292.07,-233.84 -432.81,128.32 -461.24,-1401.05l-45.14 -3356.28c-392.47,107.36 -406.51,235.36 -567.38,550.47l-178.41 300.79c-2.97,3.31 -158.96,103.68 -200.15,147.09 1.25,235.75 24.85,638.46 -12.85,856.48 -105.86,611.89 108.84,-309.45 -46.11,179.9 -456.36,1441.15 -122.11,469.32 -312.28,1401.72 -50.18,246.14 4.93,99.15 -91.04,233.47 -406.87,-331.77 -225.97,-1410.5 -329.1,-1799.81 -58.18,-219.6 -30.59,-125.07 -270.9,-335.98 361.4,-279.59 271.66,-146.87 291.01,-740.17 84.82,-2598.76 63.79,-850.68 250.46,-1837.06 109.24,-577.35 -178.55,-635.76 167.23,-1299.01 230.32,-441.72 117.71,-429.41 358.69,-699.71 622.46,-698.18 176.67,-142.07 613.8,-909.01 225,-394.68 264.73,-320.63 93.64,-814.86 -425.43,-38.21 -326.4,-88.98 -613.92,110.15l-321.84 323.75c-398.37,324.19 -882.21,124.8 -1092.09,-179.43l869.48 -46.51c46.57,-339.98 117.99,-535.25 41.16,-879.9 -138.34,-620.73 -240.65,-246.24 -280.05,-636.86 344.87,-87.3 450.38,-43.54 723.8,-351.2 847.49,-953.75 237.4,-420.26 1267.36,-778.2 305.41,-106.11 -35.7,17.65 203.14,-105.87 873.74,-451.88 1167,220.46 1456.83,-562.31 -476.8,64.65 -269.73,78.77 -487.89,132.5 -1847.36,454.99 -1405.7,-376.64 -2548.47,1068.1 -458.69,579.9 -806.75,157.02 -1332.25,729.86 -340.92,371.64 -220.66,1025.51 -451.49,1578.85 -227.71,545.85 -298.37,184.7 -398.55,664.08 -83.41,399.12 87.09,428.8 -71.44,899.76 -122.36,363.44 -249.58,304.69 -259.4,789.36 -10.45,518.38 140.77,1644.86 56.68,2053.13 -130.56,634.04 -95.44,129.49 -332.26,669.96 -118.56,270.57 -150.97,556.4 -242.8,841.66 -152.47,473.65 -159.18,292.99 -332.05,621.92 145.66,589.4 225,30.92 274.75,853.65 31.6,522.03 40.29,500.1 128.96,979.39 670.88,-753.57 502.07,-1016.99 568.57,-1285.83 144.07,-582.27 587.13,-536.43 565.56,407.12 -13,569.39 73.79,1264.69 -50.82,1771.89 -102.62,417.63 -6.38,527.56 107.26,1337.9 486,224.84 327.49,-37.52 765.11,406.96 1019.75,1035.71 -285.43,1441.49 282.75,2500.92 152.49,284.3 271.81,219.99 545.3,645.14 889.1,1382.35 622.98,1800.64 1270.55,1902.67 5.68,-560.88 26.49,-658.58 -262.1,-996.83 -302.73,-354.84 -502.83,-309.09 -238.51,-677.25 145.32,-99.98 -179.04,-192.62 332.9,45.32 185.66,86.31 221.57,123.76 373.97,269.6 294.64,281.96 335.31,428.32 532.6,762.34 675.62,1143.85 779.17,329.02 1404.07,1051.9 407.02,470.88 71.57,277.95 801.71,429.56 916.79,190.34 269.27,638.03 1513.12,1099.59 255.78,94.93 558.27,226.68 795.94,391.1l-182.71 460.83c-12.45,17.8 -42.35,48.33 -53.19,62.3l-118.36 119.87c25.01,19.68 62.36,36.91 82.3,48.45l157.17 91.43c419.72,240.83 413.96,275.58 871.31,297.67 130.53,6.28 302.01,-5.62 437.06,9.41 265.59,29.59 1717.71,1178.24 2094.9,1510.71 273.46,241.02 208.48,309.13 308.12,467.91 125.57,200.09 -104.89,75.79 212.3,212.73 182.29,78.68 690.84,45.96 897.1,44.16l-130.56 -474.28c-395.85,-101.73 -939.26,-391.98 -677.01,-955.15 227.83,-489.2 289.74,291.35 -96.85,-1393.22 -976.51,-124.52 -980.48,533.51 -2512.58,-710.55 -439.47,-356.84 -973.02,-530.18 -1139.99,-1145.04 429.28,6.04 566.93,152.8 870.96,254.71 437.1,146.52 280.72,-7.65 730.66,229.08 477.84,251.4 924.99,123.81 1545.77,299.45 755.45,213.76 247.6,9.35 723.22,-82.11 754.33,-145.05 713.89,206.08 1449.14,246.75 338.18,18.72 425.01,-43.78 818.87,24.97 68.66,723.49 -399.21,475.83 -621.39,1130.06 166.62,141.16 298.06,217.95 397.43,365.8 443.8,-154.89 300.73,-273.88 670.02,-208.24 506.48,90.05 -98.84,328.47 2278.9,294.09 322.94,-4.69 1444.46,-19.99 1687.62,-75.8 466.96,-107.17 318.63,-371.3 1386.3,-235.05 -18.2,327.25 -254.23,441.77 -364.59,522.91l-590.2 300.76c59.21,888.39 363.49,1265.15 -808.54,1037.08 -134.27,-248.49 -92.44,-364.26 -201.62,-626.75 -1029.63,42.71 -692.96,199.13 -1216.15,309.54 -455.87,-174.52 98.76,-97.29 -464.56,-253.89 -535.61,-148.91 -1362.08,-75.71 -1760.94,176.98 -134.42,1032.4 591.45,211.48 875.87,146.08 382.14,-87.91 617.62,225.95 594.27,559.34 -0.64,9.48 -76.7,239.61 -90.4,354.44l1060.1 308.73c183.81,-316.14 -7.32,-259.45 194.26,-621.21l2695.06 -16.58c95.99,-198.91 46.84,-178.05 97.93,-314.74 69.14,-184.94 40.85,-149.67 138.16,-291.83 419.05,-612.41 1474.45,-378.96 2044.04,-558.33 654.08,-205.96 188.46,-37.12 523.22,-285.03 114.85,-85.08 39.03,-83.59 300.31,-145.78 30.67,-7.29 345.66,-21.99 409.51,-27.28 438.98,-890.29 1049.96,-888.83 670.3,-1520.98 -325.31,117.92 -479.81,588.76 -750.14,889.35 -713.92,-11.49 -159.17,-125.58 -666.26,-180.69 -802.38,-87.21 128.05,54.62 -665.41,179.38l-15.1 718.3c-413.28,112.18 -486.73,528.74 -1086.26,253.52 -564.62,-259.18 -205.14,-588.52 -26.19,-839.8 -353.59,-258.51 -529.87,-144.17 -172.78,-467.51 221.93,-200.94 459.21,-151.4 729.92,-278.16 464.29,-217.4 -42.19,-192.44 623.19,-310.82 1020.04,-181.45 511.22,-209.42 1271.77,-577.62 284.28,-137.61 732.46,-778.45 860.37,-1045.68 128.62,-268.74 98.45,-412.12 -63.09,-578.1 -208.02,-192.17 -174.64,-41.01 -410.58,182.23 -272.52,257.81 -541.93,301.28 -801.62,500.95l-602.74 678.71c-177.62,320.45 -83.87,327.43 -469.48,528.62 -356.17,185.84 -313.61,139.85 -544.91,91.07 -642.11,-135.33 -942.35,-65.98 -1607.46,-144.62l-32.45 -902.61 -392.17 -70.07c-119.89,-8.57 -343.08,7.47 -470.02,10.42 -148.52,271.87 -311.61,536.15 -479.62,788.92 -259.94,-3.61 -510.07,-84.87 -674.25,-79.16 -334.36,11.63 -283.12,196.02 -520.37,200.94l-747.82 -231.02c-321.27,-27.89 -464.1,-6.08 -806.06,-63.89 -483.48,-81.68 -1018.06,-144.8 -1284.13,-483.05l582.87 -156.84c1274.08,7.9 1030.27,189.18 2565.84,-13.58 404.23,-53.37 369.87,-92.23 723.76,-258.24 58.72,-376.91 -61.27,-481.17 -88.12,-878.26 208.14,-69.92 186.48,-90.88 361.8,-177.64 184.51,-91.29 65.34,-84.09 313.15,-121.67 597.64,-90.58 504.99,100.76 1281.21,-206.6l180.72 -40.4c290.56,16.91 217.74,334.84 774.65,140.85 444.57,-279.89 333.6,-723.4 993.55,-905.33 612.19,-168.8 277.04,-17.01 725.95,-267.19 887.81,-494.82 1390.48,-96.76 1807.26,-995.28 308.3,-664.71 154.7,-82.6 402.64,-556.9 155.69,-297.82 -12.27,-359.69 210.88,-643.87 114.8,-146.18 374.24,-211.18 573.89,-383.06 707.39,-608.98 1174.23,-1441.95 1254.21,-1528.55 236.33,-255.9 278.34,-113.49 565.44,-405.22 334.57,-340.05 128.07,-219.21 349.52,-624.16 225.36,-412.12 589.1,-597.64 748.4,-1035.71l83.53 -693.73c-461.97,149.71 -258.51,186.79 -521.39,442.54 -25.58,24.88 -273.36,116.5 -546.05,428.99 -290.38,332.78 331.05,-300.82 -138.52,169.23 -145.27,145.42 -254.66,190.37 -337.16,317.35 -52.31,80.47 -357.58,1272.62 -1243.13,784.64 63.55,-169.65 100.04,-99.21 205.08,-216.65l154.98 -185.91c370.63,-588.94 -59.72,-433.63 497.24,-669.62 0,-325.86 -37.48,-629.91 60,-844.28 138,-303.58 210.93,75.89 261.49,-655.47 -191.2,-158.44 -9.14,-81.32 -308.73,-195.08 -72.81,-27.64 -250.98,-18.72 -333.73,-18.72 -49.73,-150.45 -125.16,-73.54 -289.04,-616.14l508.52 -561.74 423.51 212.34c4.26,632.97 86.07,561.04 320.94,750.14 223.06,-594.15 -76.73,-463.38 269.9,-1151.42 153.68,-305.11 22.64,16.98 158.78,-348.33 -626.83,-330.02 -685.55,174.1 -971.12,-1508.86 -6.38,28.56 -254.63,1132.7 -347.64,994.63 -12.31,-18.28 -45.39,60.12 -73.3,85.03 -171.66,-545.52 118.05,-808.12 25.55,-1388.78 -109.66,-688.38 -88.06,261.27 -197.7,-1074.56 -40.22,-490.11 -438.16,-1555.07 -576.59,-2003.71 -147.87,-479.32 -22.97,-763.72 -389.62,-1012.17 -317.01,-214.86 -572.39,-83.99 -807.15,-522.7 -30.34,-56.72 -190.4,-421.73 -194.29,-426.46 -296.27,-361.28 -801.23,-124.34 -919.55,-969.28l680.62 -210.42c-265.22,-669.75 -793.38,-1244.58 -1363.78,-1830.83 -328.43,-337.58 -382.93,-207.38 -768.75,-522.55l-106.59 -94.53c-13.67,-13.88 -34.87,-36.82 -47.87,-51.51 -20.17,-22.88 -263.16,-359.15 -380.59,-498.13 -347.64,-411.46 -241.81,-233.93 -205.26,-397.69 518.44,-311.79 575.61,166.35 1047.91,-33.99 33.75,-392.9 42.71,-258.27 -386.19,-546.11 -897.82,-602.62 26.13,-316.99 -949.37,-865.08l-141.1 -81.9c-1556.16,-1013.41 -683.67,-316.98 -1651.9,-816.3 -334.15,-172.32 -264.13,-181.69 -660.68,-240.25 -740.22,-109.3 -571.75,-112.12 -668.63,-343.78 63.82,-109.51 -1.52,-585.64 1095.34,-82.02 395.72,181.72 505.69,395.94 886.98,352.52 521.24,-59.29 304.2,-363.85 827.69,109.91 772.58,699.19 1108,639.38 1736.12,895.91l742.42 496.75c959.01,562.98 592.99,1046.25 -62.76,1540.06 87.94,483.24 67.99,722.4 434.61,907.91 295.5,-160.93 93.29,-80.56 274.63,-342.62 126.83,-183.24 -139.49,-161 281.66,-258.7 682.79,-158.44 1152.14,795.25 1234.13,909.23 280.17,389.43 322.88,244.17 552.05,507.75 201.85,521.2 -772.43,1766.88 551.5,2142.74l226.49 706.97c14.03,28.44 81.56,177.65 98.66,206.48 72.81,122.81 -57.99,562.8 1086.17,278.83 93.2,-444.45 122.75,-812.31 -118.98,-1185.74 -381.54,-589.37 -107.08,-26.51 -254.11,-859.89l-880.91 -1668.01c-1176.29,-1222.37 -251.61,-697.81 -1208.95,-1211.47l-1393 -1052.41c486.21,-176.7 369.26,-296.91 873.22,28.62 19.89,12.84 41.95,34.84 62.18,47.71l994.34 339.23c367.8,-50.95 113.97,159.81 292.89,-157.66 241.11,-427.77 -83.02,-24.39 -618.14,-460.15 44.77,-334.09 -1309.92,-1633.51 -1968.9,-1934.75l-1502.09 -793.03c108.78,-783.39 119.59,71.15 345.69,-652.07 -589.44,-321.24 -423.85,-234.27 -857.48,-731.36 -813.78,230.66 -61.76,66.74 -904.85,47.93 -266.68,971.7 -707.82,470.6 -1131.24,50.76 -500.04,59.15 -442.24,372.65 -913.96,180.69 -327.43,-133.26 -216.04,-493.72 -801.65,-629.39 -428.71,-99.3 -278.68,50.16 -689.84,-178.19l-595.15 -414.56c-602.49,-37.91 -1001.11,154.74 -1311.14,-19.44 -311.12,-174.82 -189.94,-196.57 -440.98,-277.79 -258.79,-83.69 -399.22,-24.37 -670.15,-96.7 -373.42,-99.67 -223.64,-159.85 -509.97,-240.47 -299.43,-84.29 -389.41,-20.68 -703.63,-35.6 -335.97,-15.91 -1002.47,-35.57 -1269.4,-218.71 -25.43,-716.41 41.28,-145.57 500.64,-637.04 -795.24,-392.33 -1400.39,-86.13 -1810.96,579.59l-1113.14 -24.94 -228.98 -613.86c-540.13,901.23 -1268.12,230.78 -2028.86,869.37 -415.11,348.45 -181.81,526.01 -200.52,882.45 -30.83,586.67 -664.19,1109.31 -1687.75,541.69 -126.55,160.78 -266.8,318.9 -439.38,418.99 -436.16,252.91 -748.98,-84.73 -1203.87,964.62 -599.28,1382.41 109.45,-315.62 -938.93,965.73 -248.7,303.92 -380.07,481.02 -918.48,417.01 43.2,-279.74 346.39,-520.06 61.52,-622 -219.32,-78.5 -1165.81,1180.21 -1360.17,1415.72 -136.08,164.95 -92.31,113.16 -209.11,309.3 -12.13,20.35 -28.8,46.6 -40.62,67.65l-114.35 218.04c-149.36,390.08 34.51,1056.95 -1151.5,1677.06z"/>
   <path class="fil3" d="M36534.48 22966.46c-65.01,466.8 -141.77,-47.37 -197.2,543.81 -35.91,382.57 94.59,275.67 -21.84,544.42 -8.7,20.04 -316.47,423.6 -318.39,427.31 -324.85,629.14 323.79,378.41 192.26,1015.93 -68.35,331.26 -96.91,48.72 -254.71,570.24 -146.75,484.95 14.89,713.29 -622.55,691.78 -92.29,-555.91 143.59,-375.74 266.17,-1041.97 78.74,-427.95 -8.67,-798.82 -20.26,-1243.97 -407.09,236.33 -212.58,18.07 -460.74,497.24l-254.8 511.7c-159.3,438.07 -523.04,623.59 -748.4,1035.71 -221.45,404.95 -14.95,284.12 -349.52,624.16 -287.1,291.73 -329.11,149.33 -565.44,405.22 -79.98,86.6 -546.82,919.58 -1254.21,1528.55 -199.64,171.87 -459.09,236.88 -573.89,383.06 -223.15,284.18 -55.19,346.05 -210.88,643.87 -247.94,474.31 -94.34,-107.8 -402.64,556.9 -416.78,898.53 -919.46,500.46 -1807.26,995.28 -448.91,250.18 -113.76,98.39 -725.95,267.19 -659.95,181.93 -548.98,625.44 -993.55,905.33 -556.9,193.99 -484.09,-123.94 -774.65,-140.85l-180.72 40.4c-776.22,307.36 -683.58,116.01 -1281.21,206.6 -247.82,37.57 -128.65,30.37 -313.15,121.67 -175.31,86.75 -153.66,107.72 -361.8,177.64 26.85,397.1 146.84,501.35 88.12,878.26 -353.89,166.01 -319.54,204.87 -723.76,258.24 -1535.56,202.77 -1291.75,21.48 -2565.84,13.58l-582.87 156.84c266.07,338.25 800.64,401.37 1284.13,483.05 341.96,57.81 484.79,36 806.06,63.89l747.82 231.02c237.25,-4.93 186,-189.31 520.37,-200.94 164.19,-5.71 414.31,75.55 674.25,79.16 168.01,-252.76 331.1,-517.05 479.62,-788.92 126.94,-2.95 350.13,-18.99 470.02,-10.42l392.17 70.07 32.45 902.61c665.11,78.64 965.35,9.29 1607.46,144.62 231.3,48.78 188.74,94.77 544.91,-91.07 385.61,-201.19 291.86,-208.17 469.48,-528.62l602.74 -678.71c259.69,-199.67 529.1,-243.14 801.62,-500.95 235.94,-223.25 202.56,-374.4 410.58,-182.23 161.54,165.98 191.71,309.36 63.09,578.1 -127.92,267.23 -576.1,908.07 -860.37,1045.68 -760.55,368.2 -251.73,396.17 -1271.77,577.62 -665.38,118.38 -158.9,93.42 -623.19,310.82 -270.71,126.76 -507.99,77.22 -729.92,278.16 -357.09,323.33 -180.81,209 172.78,467.51 -178.95,251.28 -538.44,580.63 26.19,839.8 599.52,275.22 672.98,-141.34 1086.26,-253.52l15.1 -718.3c793.45,-124.77 -136.97,-266.6 665.41,-179.38 507.09,55.1 -47.66,169.2 666.26,180.69 270.32,-300.59 424.83,-771.44 750.14,-889.35 379.66,632.14 -231.33,630.68 -670.3,1520.98 -63.85,5.3 -378.84,19.99 -409.51,27.28 -261.28,62.18 -185.46,60.7 -300.31,145.78 -334.76,247.91 130.86,79.08 -523.22,285.03 -569.6,179.37 -1624.99,-54.08 -2044.04,558.33 -97.3,142.17 -69.01,106.9 -138.16,291.83 -51.1,136.69 -1.94,115.83 -97.93,314.74l-2695.06 16.58c-201.58,361.77 -10.45,305.08 -194.26,621.21l-1060.1 -308.73c13.7,-114.83 89.77,-344.95 90.4,-354.44 23.35,-333.39 -212.13,-647.25 -594.27,-559.34 -284.42,65.4 -1010.29,886.32 -875.87,-146.08 398.85,-252.68 1225.32,-325.89 1760.94,-176.98 563.32,156.6 8.69,79.38 464.56,253.89 523.19,-110.42 186.52,-266.83 1216.15,-309.54 109.18,262.49 67.35,378.26 201.62,626.75 1172.03,228.06 867.75,-148.7 808.54,-1037.08l590.2 -300.76c110.36,-81.14 346.39,-195.66 364.59,-522.91 -1067.67,-136.24 -919.34,127.89 -1386.3,235.05 -243.16,55.8 -1364.69,71.11 -1687.62,75.8 -2377.74,34.38 -1772.42,-204.04 -2278.9,-294.09 -369.29,-65.64 -226.22,53.35 -670.02,208.24 -99.37,-147.85 -230.81,-224.64 -397.43,-365.8 222.18,-654.23 690.05,-406.57 621.39,-1130.06 -393.87,-68.75 -480.69,-6.25 -818.87,-24.97 -735.25,-40.67 -694.81,-391.8 -1449.14,-246.75 -475.62,91.46 32.23,295.87 -723.22,82.11 -620.78,-175.64 -1067.94,-48.05 -1545.77,-299.45 -449.95,-236.73 -293.56,-82.57 -730.66,-229.08 -304.04,-101.91 -441.68,-248.67 -870.96,-254.71 166.98,614.86 700.53,788.2 1139.99,1145.04 1532.09,1244.06 1536.07,586.03 2512.58,710.55 386.59,1684.56 324.67,904.02 96.85,1393.22 -262.25,563.17 281.16,853.41 677.01,955.15 500.37,292.26 154.4,167.41 774.01,294.94 979.03,201.49 1284.46,683.03 1793.08,946.12 499.8,258.54 2810.91,546.61 2989.32,68.6l-690.05 -89.16c126.12,-156.66 88.95,-332.94 750.5,-349.46 273.7,-6.8 494.57,65.55 729.87,116.13 776.13,166.77 312.61,-275.67 1077.02,-100.49 436.94,100.13 322.73,389.16 731.27,191.56 858.03,-415.11 439.13,-219.75 1533.16,-228.43 338.49,-633.8 371.09,-529.47 734.09,-585.92 260.57,-40.52 882.82,0.58 1194.86,-6.8 363.25,-698.4 333.7,221.9 417.14,-1072.4l34.99 -200.85c448.64,-153.2 696,-43.84 1225.29,-60.63l861.43 -953.54c483.61,-659.39 -343.05,-127.4 -259.33,-1229.27 1017.88,-520.91 844.94,277.22 1504.33,-187.8 63.8,-44.95 143.32,-106.53 192.8,-151.85 399.95,-366.5 280.6,-696.98 507.66,-1101.84 234.24,-417.75 360.58,-342.07 652.35,-739.72l850.56 -962.89c194.26,-232.71 255.5,-405.19 295.17,-827.81 146.39,-1559.53 274.05,-164.19 -97.51,-1715.09 -517.36,-170.94 -599.64,80.49 -672.31,-453.45 -165.83,-1218.09 443.27,-972.1 947.77,-1123.49 228.77,-68.66 566.75,-165.92 729.6,-218.81 188.28,-1543.77 -189.06,-1013.47 -404.71,-1860.72 -28.61,-558 917.14,-1498.14 917.97,-1500.29 19.2,-615.63 -175.55,-740.96 -81.02,-1155.21l596.36 16.92c-3.09,367.35 -121.6,727.28 -71.75,1030.81 78.41,477.2 137.85,206.36 412.92,553.38 460.82,24.24 -386.88,-22.99 209.78,-65.86 17.93,-1.28 56.02,-2.09 73.67,-2.09 19.71,0 64.89,7.78 81.86,8.75l183.33 41.95c-178.98,1135.08 -965.94,2264.53 -1407.22,3500.27 -60.39,169.11 -78.35,175.42 -129.77,299.15 -170.85,411 -331.17,920.06 -363.71,1400.51 442.48,-332.81 196.69,-534.52 360.67,-1073.34l1361.45 -3129.91c650.65,-1583.78 447.63,-768.54 631.11,-2284.3 80.43,-664.44 280.78,-2069.44 -159.27,-2718.54 120.54,1407.13 56.17,2424.06 -14.22,3791.31 -503.74,-484.27 -108.96,-1209.1 -1135.28,-1296.83 279.1,-943.55 436.51,-357.21 489.07,-1596.35 38.12,-898.89 -626.38,-2440.83 -777.14,-2942.11 -150.09,-499.1 -160.51,-1253.21 -248.27,-1486.35 -370.33,203.1 -440.37,911.31 -350.92,1513.66 101.85,685.74 425.34,712.56 423.82,1515.97 -0.64,332.15 31.96,792.52 23.94,1079.76 -10.36,370.35 -89.07,374.97 -278.99,684.85 -443.74,723.97 -214.79,669.3 -1317.61,705.69z"/>
   <path class="fil1" d="M13415.75 21448.41l850.74 104.68c295.44,806.64 -361.98,946.4 430.26,1392.73 427.8,240.98 1434.89,381.39 1828.13,198.24 -365.8,-437.03 -665.14,-148.08 -901.93,-623.07l-414.07 -1054.39 295.68 -511.67c86.97,-248.49 43.63,-375.04 148.91,-649.01l209.7 -58.29c569.82,-63.13 -370.75,-38.19 207.75,-23.51 421.64,10.69 577.38,211.42 904.57,422.33 14.85,310.21 -276.16,937.53 -419.39,1219.03 -208.84,410.4 -96.57,-343.9 -229.34,458.42 453.96,507.69 573.7,402.25 1239.2,500.15 592.02,1235.2 -117.04,2474.29 1947.85,1772.75 586.55,-199.28 65.52,33.81 630.45,76.06 339.25,25.4 424.37,-131.02 743.24,-306.04 -59.26,-267.32 200.7,-196.72 416.25,-263.4 493.08,-152.56 158.69,94.1 505.3,-337.49 223.24,-277.97 742.78,-501 1137.99,-625.03 -248.22,1304.79 -1928.07,1583.74 -2096.21,2345.29 761.61,-13.79 1223.56,-404.89 1890.16,-717.72 981.72,-460.67 2074.12,-1400.79 2375.1,-2480.97l375 -807.35c125.88,-305.15 25.03,-822.34 96.97,-1207.61 337.76,36.42 327.07,218.65 588.46,353.83 199.76,-922.62 12.45,-1356.4 -369.44,-2148.58 -401.13,-832.14 37.36,-946.88 -759.7,-1710.96 -438.77,-420.6 -514.89,-1093.54 -1186.29,-1250.41 -473.55,-110.61 -637.31,79.41 -1232.43,-67.26l-306.53 -83.72c-19.92,-2.94 -50.98,-1.49 -70.72,-3.88l-294.36 -41.74c-399.64,-189.92 -114.73,11.03 -211.14,-175.88 178.91,-389.47 -10,-207.99 413.76,-324.7 502.87,-138.49 1117.76,176.46 1407.47,267.25 183.87,-114.04 290.56,-299.54 355.65,-478.35 -300.06,-254.26 -266.65,-315.26 -338.3,-729.21 908.46,125.97 129.4,295.48 773.3,220.79 210.64,-328.29 -14.03,-640.05 -256.05,-890.81 -344.15,-356.57 -563.16,-552.14 -681.33,-893.51 -975.74,-114.65 -663.37,-4.84 -1300.84,195.63 -265.43,83.47 -577.5,38.85 -782.6,-75.34 -426.28,-237.34 -586.95,-375.16 -875.74,-317.84 -48.88,9.72 -209.45,59.82 -323.76,60.27 -397.99,1.59 -435.21,-107.92 -663.8,-339.92l-193.07 -211.64c-533.51,-26.49 -2208.2,-118.4 -2487.86,26.47 -460.52,238.54 -351.97,598.4 -830.05,602.98 -678.54,6.5 -199.07,-500.28 -1033.85,-70.38 -1030.64,530.75 -1643.35,1477.79 -2370.82,2340.5 -14.12,16.76 -35.75,40.01 -49.67,57.17 -14.12,17.41 -35.32,41.28 -48.99,59.2l-200.43 329.96c-45.75,-481.99 -6.59,-316.14 -265.47,-536.03 -509.03,91.34 -405.28,179.28 -845.55,492.45 -537.22,382.11 -367.1,146.93 -753.66,660.67 -565.71,751.8 -839.08,-28.55 -1414.94,1247.47 -202.56,448.82 -93.71,685.31 -149.21,1201.87 -68.38,636.37 -279.32,265.62 -277.05,1068.13 2.67,950.95 269,117.22 259.75,1066.29 -5.79,595.54 -179.07,672.22 72.91,1307.16 420.69,-54.07 143.52,129.37 350.61,-243.5 171.33,-308.48 539.68,-2843.66 579.48,-3188.99 55.86,-484.91 56.44,-360.3 291.79,-705.66 228.89,-335.85 139.23,-305.26 461.76,-625.31 15.41,-15.25 40.56,-34.9 55.74,-50.49l194.69 -237.49c117.93,-175.52 50.61,-124.06 200.98,-328.38 191.37,-260.05 303.43,-294.84 544.02,-584.97 291.98,97.69 324.94,187.74 690.8,190.44 341.47,-459.21 291.59,-615.05 803.21,-1002.51 435.85,-330.08 683.58,-639.4 1077.93,-897.24 502.26,-58.24 801.59,148.39 1238.27,-12.76 286.39,-105.68 366.83,-449.77 721.3,-558.76 248.43,-76.36 289.25,-1.37 567.03,-92.35 517.96,-169.62 796.1,-621.39 1503.39,-218.77 -36.55,449.67 -361.89,325.55 -590.2,628.29l-57.72 122.08c-5.34,13.94 -6.83,55.43 -9.99,67.16 -110.3,406.91 511.33,229.2 727.38,168.84 496.51,-138.65 325.7,-118.53 849.76,-61.73 287.86,31.22 624.68,12.9 878.63,89.61 32.81,9.9 309.75,153.68 337.94,174.25 17.89,13.06 43.93,31.41 60.88,45.56l212.27 236.03c-477.07,301.22 -1204.87,-187.97 -1753.03,292.84 -334.72,293.59 -254.04,219.56 -178.61,671.64 483.29,149.51 903.38,-42.08 1353.08,126.45 641.69,240.53 -163.91,219.27 1383.23,247.36 231.24,627.93 -21.17,396.34 539.04,725.5 420.33,247 1203.75,758.12 1397.92,1118.97 244.51,454.38 111.42,361.43 676.05,551.35 26.01,214.4 40.73,682.45 76.03,848.13 79.38,372.55 542.08,733.6 1.55,1179.97 -416.01,343.54 -251.22,39.92 -628.07,249.07 -460.22,255.38 -96.79,681.69 -97.27,1275.87 -140.98,134.54 -127.83,122.44 -318.99,241.9 -341.65,213.52 -672.71,474.76 -1066.94,582.72 -25.91,-28.34 -48.54,-117.87 -58.5,-99.24l-99.09 -186.43c-412.52,-877.35 -589.1,-516.5 78.83,-1255.55 512.74,-567.29 -250.27,-807.97 -418.74,-1076.71 -521.42,-831.76 318.44,-338.65 216.96,-955.7 -133.3,-810.5 -1828.76,-439.05 -2243.54,-606.91 239.19,-479.65 175.21,-363.15 915.69,-405.83 796.94,-45.93 671.55,35.75 1328.15,283.57 372.64,140.65 861.5,591.72 1263.44,370.42 -7.59,-16.92 -29.37,-57.81 -33.65,-44.32 -4.5,14.1 -29.65,-38.06 -36.15,-45.53l-448.98 -481.79c-287.58,-309.03 -942.63,-829.38 -1361.65,-916.99l-1031.7 -256.74c-309.76,138.25 -66.38,278.89 -644.87,325.8 -857.34,69.5 -267.47,-163.01 -791.02,-353.14 -715.99,-259.99 -1193.61,214.46 -1397.93,641.35l-809.67 -8.14c-279.47,537.03 -208.27,154.55 -436.36,696.82 -380.29,-154.22 -573.68,-519.88 -1048.01,-201.49 -273.91,183.84 -411.37,509.09 -683.09,722.28 -477.78,374.85 -333.97,-19.17 -589.96,714.5 -265.95,762.22 -112.85,379.11 -524.07,814.86 3.68,1048.9 220.15,789.99 310.03,1267.76z"/>
   <path class="fil3" d="M9818.79 5257.28c209.03,457.57 604.14,690.36 -2.97,1181.85 -163.19,132.11 -340.41,246.23 -506.18,259.36 -473.76,37.51 -194.35,-55.1 -648.07,-268.5 98.82,203.64 99.91,148.21 91.74,443.05 -583.31,2.8 -476.07,-176.49 -917.57,41.65 -262.25,129.58 188.46,89.61 -447.73,162.79 -226.03,26.01 -340.71,-7.23 -648.16,48.85 -153.01,368.72 -168.74,1018.12 -386.8,1413.72 -292.62,530.84 -551.62,491.07 -703.77,1127.11 -386.04,81.2 -538.47,56.17 -936.29,342.72 -544.78,392.44 -333.03,853.92 -292.56,2112.76l271.42 -210.88c154.65,-114.65 33.59,-42.8 228.22,-161.94 1186.01,-620.11 1002.14,-1286.99 1151.5,-1677.06l114.35 -218.04c11.82,-21.05 28.49,-47.3 40.62,-67.65 116.8,-196.14 73.02,-144.35 209.11,-309.3 194.36,-235.51 1140.85,-1494.22 1360.17,-1415.72 284.87,101.94 -18.32,342.26 -61.52,622 538.41,64.01 669.78,-113.09 918.48,-417.01 1048.38,-1281.34 339.65,416.68 938.93,-965.73 454.89,-1049.35 767.72,-711.71 1203.87,-964.62 172.57,-100.1 312.82,-258.21 439.38,-418.99 1023.56,567.62 1656.92,44.98 1687.75,-541.69 18.72,-356.44 -214.58,-534 200.52,-882.45 760.74,-638.59 1488.73,31.86 2028.86,-869.37l228.98 613.86 1113.14 24.94c410.58,-665.72 1015.73,-971.92 1810.96,-579.59 -459.36,491.47 -526.07,-79.38 -500.64,637.04 266.92,183.14 933.43,202.8 1269.4,218.71 314.22,14.92 404.2,-48.69 703.63,35.6 286.33,80.62 136.54,140.8 509.97,240.47 270.93,72.33 411.37,13 670.15,96.7 251.04,81.22 129.86,102.98 440.98,277.79 310.03,174.19 708.64,-18.47 1311.14,19.44l595.15 414.56c411.16,228.34 261.13,78.89 689.84,178.19 585.61,135.67 474.22,496.13 801.65,629.39 471.72,191.96 413.92,-121.54 913.96,-180.69 423.42,419.84 864.56,920.94 1131.24,-50.76 843.09,18.81 91.07,182.72 904.85,-47.93 433.63,497.09 268.04,410.12 857.48,731.36 -226.1,723.22 -236.91,-131.32 -345.69,652.07l1502.09 793.03c658.97,301.25 2013.67,1600.66 1968.9,1934.75l571.97 31.13c93.53,-894.85 -104.4,-494.32 -300.95,-1243.64 -69.65,-265.53 -79.38,-395.39 -155.84,-631.57 1040.24,-25.36 1375.36,641.53 1730.68,999.23 -203.43,187.88 -352.8,158.08 -546.7,367.53 115.8,687.22 924.07,922.86 1196.28,1347.14 280.42,437.06 -101.18,94.96 360.27,484.3 23.85,20.11 102.13,70.29 125.07,92.81 248.15,243.38 179.74,274.11 237.25,438.61l154.25 360.12c10.91,19.56 30.52,43.48 41.61,63.28 11.46,20.53 29.81,45.59 41.01,66.83 213.74,405.35 285.48,1053.11 600.13,1174.35 84.29,-639.96 -3.43,-1080.39 -102.43,-1620.28 -21.57,-117.59 -54.6,-644.58 -59.54,-671.31 -103.96,-560.02 -156.26,-4.34 -77.25,-439.8 57.36,-316.25 -35.42,-103.44 131.54,-322.43 776.92,471.85 508.17,975.6 730.17,1526.88 75.15,186.67 246.48,474.89 337.45,722.94 149.25,406.97 11.67,572.8 325.5,730.51 492.38,-1687.78 -1280.71,-4110.12 -1477.58,-3592.89 -41.1,107.99 25.82,465.29 -129.89,698.92 -530.75,-202.47 -1340.84,-781.12 -366.8,-1274.32 -93.23,-211.94 -223.73,-432.54 -332.91,-682.76 -270.12,-619.02 269.66,-1706.74 -1498.14,-1726.17 -112.91,-876.17 -245.42,-475.68 -776.8,-933.25 -394.11,-339.37 -416.9,-793.87 -738.68,-1070.06 -830.79,-713.11 -686.71,-123.24 -1130.67,40.85 -693.39,256.32 -462.16,-452.71 -1374.23,-236.64 -67.32,841.3 323.16,355.47 1171.04,1304.15 637.04,712.74 -140.73,1187.84 -1315.85,-97.17 -1069.82,-1169.91 -500,-809.09 -1529,-1032.82 70.81,-416.35 131.81,-222.52 470.85,-705.75 26.7,-38.09 44.65,-73.3 66.61,-106.2 22.82,-34.2 49.25,-72.15 66.92,-111.82l-856.79 -619.09c-521.63,291.95 -347.06,385.77 -450.28,1024.08 -493.32,-31.6 -743.09,-248.22 -1061.35,-392.78 -16.77,-1161.62 241.47,-296.91 -738.81,-1311.35l-1133.37 -11.46 75.71 -476.25c544.91,111.82 742.87,375.47 1223.87,71.69 -542.84,-753.87 -3786.94,-1047.34 -4652.9,-842.71 43.47,273.42 35.39,82.29 136.27,271.84 149.43,280.81 103.74,-167.53 142.11,324 -944.77,211.21 -914.14,-234.27 -2207.48,-580.42 -278.31,-74.48 -153.13,-48.6 -337.25,-142.1 -364.47,-185.1 287.68,-38.28 -426.92,-208.88 -445.11,-35.72 -1702.51,728.2 -2127.74,1093.34 -106.23,91.22 -232.47,235.94 -387.51,351.85 -701.27,524.19 -250.28,-179.95 -1086.02,531.12l-487.01 75.4c1.85,-9.69 6.38,-45.35 9.2,-58.02 3.19,-14.25 12.79,-46.79 17.01,-63.86l118.3 -561.91c-810.56,121.26 -2071.21,989.84 -2554.93,1781.68 -268.96,440.31 -121.46,242.65 -486.8,357.33 -145.87,45.77 -183.23,-16.37 -439.86,228.95l-93.29 115.7c-184.64,166.56 -310.33,131.38 -550.01,85.33z"/>
   <path class="fil4" d="M34842.41 25482.95l254.8 -511.7c248.16,-479.17 53.65,-260.91 460.74,-497.24 11.6,445.15 99,816.02 20.26,1243.97 -122.57,666.23 -358.46,486.06 -266.17,1041.97 637.44,21.51 475.79,-206.83 622.55,-691.78 157.8,-521.51 186.36,-238.97 254.71,-570.24 131.54,-637.53 -517.11,-386.8 -192.26,-1015.93 1.91,-3.71 309.69,-407.27 318.39,-427.31 116.43,-268.75 -14.07,-161.85 21.84,-544.42 55.43,-591.18 132.2,-77.01 197.2,-543.81 236.43,-188.77 -87.27,-53.07 415.29,-197.21 62.36,-17.86 262.4,-14.77 334.84,-16.13 774.96,-1055.97 403.5,-901.59 508.12,-2257.23l-574.11 155.14c-303.49,371.78 -428.89,399.64 -738.55,26.18l-304.23 -94.16c-93.65,-1229.06 -25.98,-1734.44 1283.86,-1170.68 41.37,-672.49 -160.09,-1348.47 217.74,-1821.71 277.17,-347.12 40.76,-45.72 226.31,-217.44 393.14,-363.91 291.77,340.05 293.35,-570.87 -353.53,105.38 -100.55,1.22 -336.24,188.77 -358.25,285.05 -144.81,542.89 -681.73,326.22 -406.75,-164.13 -212.15,-425.59 -212.15,-425.59 0.58,-3.43 179.5,-278.19 210.45,-354.65l-231.69 -196.97c-443.89,-520.57 -402.98,-1301.6 -10.29,-1534.35 114.31,-67.74 192.02,-60.11 334.75,-103.01l282.69 -94.59c-243.65,-344.53 56.44,-195.24 -526.01,-288.09 289.28,-45.6 129.92,163.4 198.06,-368.21 -429.37,-37.23 -555.9,-86.36 -680.35,-433.29l-760.28 294.66c-314.65,-121.24 -386.4,-768.99 -600.13,-1174.35 -11.21,-21.24 -29.56,-46.3 -41.01,-66.83 -11.09,-19.8 -30.7,-43.72 -41.61,-63.28l-154.25 -360.12c-57.51,-164.49 10.9,-195.23 -237.25,-438.61 -22.94,-22.52 -101.21,-72.69 -125.07,-92.81 -461.45,-389.34 -79.85,-47.24 -360.27,-484.3 -272.21,-424.28 -1080.48,-659.91 -1196.28,-1347.14 193.9,-209.45 343.27,-179.65 546.7,-367.53 -355.32,-357.7 -690.45,-1024.59 -1730.68,-999.23 76.46,236.18 86.19,366.04 155.84,631.57 196.54,749.32 394.47,348.79 300.95,1243.64l-571.97 -31.13c535.13,435.76 859.25,32.38 618.14,460.15 -178.92,317.47 74.91,106.72 -292.89,157.66l-994.34 -339.23c-20.23,-12.87 -42.29,-34.87 -62.18,-47.71 -503.95,-325.53 -387,-205.32 -873.22,-28.62l1393 1052.41c957.34,513.66 32.66,-10.9 1208.95,1211.47l880.91 1668.01c147.03,833.37 -127.43,270.51 254.11,859.89 241.74,373.43 212.18,741.29 118.98,1185.74 -1144.15,283.97 -1013.35,-156.02 -1086.17,-278.83 -17.1,-28.83 -84.63,-178.04 -98.66,-206.48l-226.49 -706.97c-1323.93,-375.86 -349.65,-1621.53 -551.5,-2142.74 -229.17,-263.58 -271.88,-118.33 -552.05,-507.75 -81.99,-113.98 -551.34,-1067.67 -1234.13,-909.23 -421.15,97.69 -154.83,75.46 -281.66,258.7 -181.35,262.06 20.87,181.69 -274.63,342.62 -366.62,-185.51 -346.67,-424.67 -434.61,-907.91 655.75,-493.81 1021.77,-977.08 62.76,-1540.06l-742.42 -496.75c-628.11,-256.53 -963.53,-196.72 -1736.12,-895.91 -523.49,-473.76 -306.44,-169.2 -827.69,-109.91 -381.29,43.42 -491.26,-170.81 -886.98,-352.52 -1096.86,-503.62 -1031.52,-27.49 -1095.34,82.02 96.88,231.65 -71.6,234.48 668.63,343.78 396.55,58.56 326.53,67.93 660.68,240.25 968.24,499.32 95.75,-197.11 1651.9,816.3l141.1 81.9c975.5,548.09 51.55,262.46 949.37,865.08 428.9,287.85 419.94,153.22 386.19,546.11 -472.3,200.34 -529.47,-277.79 -1047.91,33.99 -36.55,163.77 -142.38,-13.76 205.26,397.69 117.44,138.98 360.42,475.25 380.59,498.13 13,14.7 34.2,37.63 47.87,51.51l106.59 94.53c385.83,315.17 440.32,184.97 768.75,522.55 570.4,586.25 1098.56,1161.07 1363.78,1830.83l-680.62 210.42c118.32,844.94 623.28,608 919.55,969.28 3.89,4.74 163.95,369.74 194.29,426.46 234.76,438.71 490.13,307.84 807.15,522.7 366.65,248.45 241.75,532.84 389.62,1012.17 138.43,448.64 536.37,1513.6 576.59,2003.71 109.64,1335.83 88.04,386.18 197.7,1074.56 92.5,580.66 -197.21,843.26 -25.55,1388.78 27.91,-24.91 61,-103.31 73.3,-85.03 93.01,138.07 341.25,-966.08 347.64,-994.63 285.57,1682.96 344.3,1178.84 971.12,1508.86 -136.14,365.32 -5.11,43.23 -158.78,348.33 -346.63,688.04 -46.84,557.27 -269.9,1151.42 -234.88,-189.09 -316.68,-117.17 -320.94,-750.14l-423.51 -212.34 -508.52 561.74c163.89,542.59 239.31,465.68 289.04,616.14 82.75,0 260.91,-8.92 333.73,18.72 299.58,113.76 117.53,36.64 308.73,195.08 -50.56,731.36 -123.49,351.89 -261.49,655.47 -97.48,214.37 -60,518.42 -60,844.28 -556.96,235.99 -126.61,80.68 -497.24,669.62l-154.98 185.91c-105.04,117.44 -141.53,47 -205.08,216.65 885.55,487.98 1190.82,-704.17 1243.13,-784.64 82.5,-126.98 191.89,-171.93 337.16,-317.35 469.57,-470.05 -151.86,163.55 138.52,-169.23 272.7,-312.49 520.48,-404.11 546.05,-428.99 262.89,-255.75 59.42,-292.83 521.39,-442.54l-83.53 693.73z"/>
   <path class="fil4" d="M14074.32 16751.41c-130.56,-673.42 144.9,-278.61 200.52,-1019.21 -857.82,83.99 -1530.22,820.45 -2295.02,1243.82 -28.83,15.94 -112.43,60.66 -140.46,76.76l-558.24 384.6c-899.86,668.61 -240.14,551.59 -518.02,1454.24 -118.59,385.19 -376.23,371.43 -548.16,867.69 -129.8,374.67 -741.23,1943.2 -290.25,2380.05 256.4,248.39 496.18,-42.71 777.68,-179.35 10.33,-5.01 39.89,-20.96 61.55,-20.81 172.45,352.86 -20.65,456.48 -173.97,1341.15 -67.04,386.77 -169.6,376.89 -224.07,669.06 -122.63,657.58 279.81,1125.96 423.79,2122.05 71.06,491.45 253.74,910.68 775.11,1054.18l220.21 -291.52c213.76,-271.24 -210.27,7.78 208.44,-237.73 609.41,485.67 -118.64,614.04 524.35,1316.09l349.3 534.52c72.84,119.01 306.2,385.76 412.34,498.43 1089.05,32.75 871.94,481.39 1607.44,77.06 99.06,114.62 342.32,329.63 420.93,385.89l351.01 160.67c439.05,152.31 982.58,660.36 1506.11,295.62 -41.04,-171.93 -633.52,-419.66 -1381.74,-1146.7l-1284.4 -1380.76c-938.1,-733.04 -209.73,-649.55 -711.89,-1243.15 -12.34,-14.62 -35.52,-37.85 -48.82,-51.46 -13.3,-13.6 -35.94,-37.6 -50.21,-50.12 -579.14,-508.61 -962.48,296.3 -1269.04,-592.81 -239.74,-695.24 43.29,-442.78 -746.31,-611.49 27.7,-563.58 244.39,-3475.48 -38.24,-3812.48 -138.22,-164.77 -294.02,-144.26 -440.44,-259.22 468.42,-1130.24 999.59,-968.09 732.89,-1622.5 -15.62,-38.31 -54.11,31.19 -168.96,-306.44 337.37,-459.64 390.05,-405.72 786.77,-740.06 310.54,-261.73 334.48,-635.06 734.91,-750.35 297.97,578.66 -259.93,257.94 214.31,1000.69 252.47,-146.93 179.46,-219.75 440.74,-463.37l1718.1 -1191.7c789.54,-526.13 710.28,-127.4 1656.13,-335.15 1117.67,-245.48 198.33,90.04 1436.59,15.71 127.52,-675.81 -206.23,-429.18 -890.05,-622.07 -574.58,-162.09 -911.07,-141.71 -1564.85,-35.2 -663,107.98 -1038.13,146.3 -1318.79,426.52 -268.54,268.14 -335.03,694.48 -897.28,658.85z"/>
   <path class="fil5" d="M13415.75 21448.41l473.4 198.24c184.69,55.38 157.47,2.95 357.35,94.87 186.7,1309.98 -1287.44,256.26 47.09,3013.5 282.87,584.46 29.56,371.82 466.11,797.55 416.89,406.6 269.75,236.03 340.95,954.79 107.44,78.59 223.24,110.36 408.41,214.55 206.45,116.13 88.55,40.28 207.2,127.71l170.6 150.6c15.91,15.32 36.4,39.22 52,54.89 288.77,289.58 473.43,526.89 741.78,503.71 602.14,-52 -243.35,-385.09 438.96,-69.78 424.33,196.11 113.36,203.25 248.51,540.69 195.64,488.43 328.84,-56.9 733.64,523.34 138.09,-188.25 219.93,-289.01 535.51,-278.65 563.62,18.53 88.34,-13.58 331.99,115.79 768.37,408.06 -240.64,-97.5 256.9,159.91 337.19,174.49 280.17,122.27 575.92,322.03 746.43,504.23 478.23,314.74 1007.31,199.7 732.64,-159.27 920.97,120.11 1242.66,-434.12 182.44,-314.31 126.16,-446.61 526.07,-685.89 753.33,-450.7 174.62,-226.61 606.51,-527.65 464.8,-323.97 2688.1,-1091.06 2311.43,-2205.57 -478.95,202.19 -663.77,723.4 -1108.34,896.85 -1386.8,541.02 -686.65,474.28 -1564.6,631.76 -950.62,170.51 -255.96,314.55 -1317.67,662.85 -610.58,200.27 -318.08,74.67 -840.2,20.66 -949.65,-98.21 -461.91,503.17 -1654.28,-236 -406.54,-252.04 -312.55,-507.08 -723.25,-681.12 -1652.17,-700.1 -1550.41,-139.57 -2200.88,-487 -323,-172.54 -297.55,-435.98 -552.05,-698.92 -295.14,-304.95 -380.86,-200.27 -725.07,-668.6 -325.74,-443.18 -875.89,-1464.81 -761.61,-1974.33 26.4,-2.03 67.89,-20.93 78.98,8.84l218.44 63.45c455.51,243.26 123.58,450.04 1076.6,424.68 -218.14,847.95 32.26,744.48 631.41,1622.2 237.31,347.67 200.37,256.38 684.73,502.74 500.37,254.47 603.59,294.36 1155.98,152.38 -33.9,-450.64 36.15,-261.15 -486.4,-613.4l-121.21 -87.18c-187.82,-132.42 -142.87,-102.28 -315.44,-209.24l-203.95 -127.1c-19.52,-14.68 -43.1,-35.6 -61.96,-50.95 -221.66,-179.95 13.88,-26.76 -230.47,-208.42 -263.14,-195.6 -210.76,-55.37 -586.16,-445.72 27.7,-26.79 77.49,-89.74 98.02,-61.21l190.83 -101.25c591.05,-252.7 205.2,131.02 521.57,-485.94 18.11,-35.29 40.08,-72.15 55.9,-102.28 16.61,-31.62 34.87,-74.66 60.81,-106.1l643.51 14.67c344.06,658.58 -47.51,1734.96 989.27,1986.55 550.88,133.72 644.76,-144.35 1255.97,-126.22 669.03,19.83 733.97,244.91 1182.95,-368.44 -318.87,175.02 -403.99,331.44 -743.24,306.04 -564.92,-42.25 -43.9,-275.34 -630.45,-76.06 -2064.89,701.53 -1355.82,-537.55 -1947.85,-1772.75 -665.51,-97.9 -785.25,7.54 -1239.2,-500.15 132.77,-802.32 20.5,-48.02 229.34,-458.42 143.23,-281.5 434.24,-908.82 419.39,-1219.03 -327.19,-210.91 -482.93,-411.64 -904.57,-422.33 -578.5,-14.68 362.07,-39.62 -207.75,23.51l-209.7 58.29c-105.28,273.97 -61.93,400.53 -148.91,649.01l-295.68 511.67 414.07 1054.39c236.79,474.99 536.12,186.03 901.93,623.07 -393.24,183.15 -1400.33,42.74 -1828.13,-198.24 -792.24,-446.33 -134.82,-586.09 -430.26,-1392.73l-850.74 -104.68z"/>
   <path class="fil3" d="M30702.19 17647.38c340.44,512.19 325.73,894.76 531.21,1631.13 259.3,929.42 53.89,496.94 -82.45,957.31 -129.59,437.55 111.03,1723.38 -189.58,3147.34 -196.03,928.66 796.88,1237.81 -1381.95,3137.01 -1096.68,955.91 -228.19,526.23 -559.95,1150.26 -249.75,469.87 -971.67,399.89 -1350.35,892.72 -199.25,259.3 -608.21,919.31 -1000.63,1048.43l-72.24 344.09 -1435.78 706.3c-21.75,14.4 -48.39,30.71 -68.53,47.09 -20.08,16.33 -43.75,36.94 -61.88,55.25 -157.74,159.39 -147.41,349.82 -590.77,898.1 -14.46,17.86 -33.96,42.86 -48.45,60.76 -168.59,208.69 -27.25,43.29 -145.3,180.71 -256.77,299 -283.05,270.6 -663.95,360.27 -322.36,75.89 -577.8,156.91 -886.34,235.54 -620.82,158.24 -1561.42,-33.98 -1525.2,576.5 1064.38,177.65 3773.26,-169.99 4352.8,-954.14l498.61 -489.43c307.6,-325.28 81.5,-275.8 303.22,-628.29 332.18,-528.08 1093.07,-302.92 2184.94,-1492.71 380.75,-414.9 724.65,-200.21 1064.63,-762.43 451.44,-746.52 -179.34,-605.21 747.28,-1142.34 508.72,-294.91 970.57,-1108.03 1210.19,-1690.88l56.13 -137.42c55.59,-185.85 33.75,-273.77 80.25,-451.89 151.68,-580.85 187.31,-226.95 267.11,-581.87 39.25,-174.49 -2.13,-699.8 -1.94,-925.99 0.88,-1191.97 -198.82,-558.42 -163.74,-1166.57 43.57,-755.45 455.78,-495.95 -1.85,-1561.97 -47.75,-111.24 -44.22,-89.95 -86.99,-261.88 -68.54,-275.34 -102.47,-588.46 -94.11,-741.08 15.68,-286.67 88.16,-485.67 89.83,-867.12l-257.57 -1541.58c-12.15,-27.55 -131.17,-902.42 -963.71,-902.69 -17.07,384.39 129.71,541.41 247.06,871.45z"/>
   <path class="fil3" d="M11939.15 29070.07c337.13,391.74 -9.63,828.17 211.79,1577.87 112.91,382.27 150.06,174.37 243.1,592.84 86.25,387.85 -51.73,526.13 204.26,765.32 566.53,569.18 389.31,-529.62 1230.09,1150.04 196,391.47 498.43,681.63 991.26,729.66 242.93,23.69 139.13,-67.2 492.02,-53.74 669.72,25.55 151.52,3.03 445.03,133.11l154.55 76.39c910.83,408.14 2607.18,651.81 3262.7,284.66l-0.19 -214.85c-629.78,-2.8 -449.61,2.21 -1044.79,-314.32l-694.06 -367.99c-603.22,-345.26 -413.03,-282.26 -1126.44,-218.5 -402.34,-776.13 -1118.79,-1022.88 -1421.62,-1372.35 -632.12,-2.37 -734.06,338.83 -1048.99,-196.6 -315.34,-536.12 44.35,-317.98 -495.39,-924.95 -318.87,-358.57 -714.35,-1296.46 -891.27,-1841.49 -204.16,-663.65 -427.55,-359.79 -512.06,194.87z"/>
   <path class="fil4" d="M33418.94 31212.11c-159.3,363.59 -360.85,472.46 -709.34,513.9 -126.42,-97 -199.43,-190.1 -314.16,-331.02 -277.58,-340.93 142.54,-221.9 -362.39,-252.13 -235.57,370.51 -69.41,567.93 -29.9,932.97l-189.46 201.28c-619.27,553.62 -424.76,5.29 -569.02,597.7 567.32,232.63 366.31,-89.1 1065.38,-4.86 70.14,665.93 -28.07,163.07 -257.2,837.34 -348.12,1024.56 -682.7,995.34 -577.89,1288.33 430.5,122.26 401.86,-412.46 1370.13,-923.81 532.66,-281.29 1193.03,-1024.59 1399.96,-1614.54 117.29,-334.33 8.54,-198.37 172.51,-471.61 142.26,-237.13 432.58,-457.43 505.66,-799.26 175.82,-822.21 -182.84,-390.46 -198.46,-936.56 -13.63,-476.12 354.6,-270.9 153.98,-1011.31l-810.74 7.74c-379.69,655.97 -410.55,421.79 -719.23,793.42 119.13,260.27 705.99,902.93 70.17,1172.4z"/>
   <path class="fil6" d="M2689.31 22715.66l-428.63 -190.98c-27.33,-13.3 -65.76,-34.17 -88.55,-45.53 -23.41,-11.7 -62.63,-28.07 -90.24,-48.06 133.38,-1087.22 379.5,-1117.88 -376.17,-1842.37 -346.27,84.23 -740.2,273.21 -970.3,552.86 -12.94,15.74 -34.78,39.71 -46.23,56.66 -241.44,357.17 46.29,1030.97 362.27,1235.77 622.31,403.32 212.34,-72.87 709.55,589.31 18.53,24.7 76.63,89.59 97.5,112.43 14.74,16.12 37.45,38.27 53.01,53.86 530.75,532.29 952.35,504.1 777.78,-473.95z"/>
   <path class="fil7" d="M4813.46 29851.49c1447.96,-726.1 559.83,-1579.92 -38.88,-2443.38l-605.54 14.4c-35.76,144.14 -996.04,1761.57 644.42,2428.99z"/>
   <path class="fil7" d="M33418.94 31212.11c360.42,-680.8 13.63,-847.73 13.51,-848 -262.18,-508.33 -138.88,-361.16 -189.03,-992.91 -710.34,-83.72 -1173.9,-71.21 -1182.91,668.97 -13.73,1123.47 7.78,-172.79 355.92,1064.17l152.44 390.38c512.16,26.52 461.51,6.72 850.07,-282.6z"/>
   <path class="fil8" d="M10461.88 31845.36c170.54,-2117.75 -1276.18,-1833.96 -1490.94,-1299.56 -257.21,639.95 42.58,964.53 385.85,1274.1 519.87,468.78 649.76,368.36 1105.09,25.46z"/>
   <path class="fil8" d="M22122.63 6892.36c1048.34,804.66 1977.85,408.08 1748.93,-269.24 -23.84,-70.62 -288.64,-360.6 -372.84,-401.15 -186.85,-89.89 -464.77,-105.41 -684.7,-106.81 -731.79,-4.62 -768.36,86.09 -691.38,777.2z"/>
   <path class="fil7" d="M8661.57 6429.99c453.72,213.4 174.31,306.01 648.07,268.5 165.77,-13.12 342.99,-127.25 506.18,-259.36 607.11,-491.5 212,-724.28 2.97,-1181.85 -633.91,-2.76 -1438.66,510.85 -1157.21,1172.71z"/>
   <path class="fil7" d="M23817 3616.49c-405.35,1790.79 2273.13,1472.95 1233.77,292.34 -376.92,-428.16 -668.09,-341.55 -1233.77,-292.34z"/>
   <path class="fil6" d="M36480.08 20677.2c309.66,373.46 435.06,345.6 738.55,-26.18 295.57,-321.15 280.45,-398.95 185.88,-1006.18 -480.02,-256.5 -140.89,-380.35 -870.58,-272.18 -410.22,491.65 -432.37,817.05 -53.86,1304.54z"/>
   <path class="fil6" d="M17887.44 39561.09l-980.45 13.3c-133.84,188.86 -344.99,394.51 -167.53,728.6 16.4,30.83 186.06,222.12 246.23,273.18l120.39 95.08c564.77,382.97 939.62,-115.24 988.87,-272.48 133.44,-426.19 -108.94,-350.89 -207.51,-837.68z"/>
   <path class="fil8" d="M33854.85 20716.18c-617.17,432.96 -496.99,206.2 -523.09,643.72 -24.91,417.17 37.14,763.93 430.47,829.97 533.91,89.64 537.07,-126.71 536.03,-613.04 -1.28,-606.42 -62.11,-594.42 -443.41,-860.64z"/>
  </g>
 </g>
</svg>
